<?xml version="1.0" encoding="UTF-8" standalone="no"?>
<svg
   xmlns="http://www.w3.org/2000/svg"
   viewBox="0 0 119 69"
   version="1.1"
   id="svg3336">
  <metadata id="metadata3342">
    <rdf:RDF>
      <cc:Work
         rdf:about="">
        <dc:format>image/svg+xml</dc:format>
        <dc:type
           rdf:resource="http://purl.org/dc/dcmitype/StillImage" />
        <dc:title></dc:title>
      </cc:Work>
    </rdf:RDF>
  </metadata>
  <defs
     id="defs3340" />
  <g
     transform="translate(0.50420807,0.01959791)"
     id="g3346">
    <path
       id="path3360"
       d="m 32.063331,63.507997 c 15.301437,-0.155331 40.051437,-0.155207 55,2.77e-4 14.948569,0.155483 2.429206,0.282572 -27.820794,0.28242 -30.25,-1.52e-4 -42.480643,-0.127365 -27.179206,-0.282697 z m -5.070794,-9.93986 c 0.9625,-0.251527 2.5375,-0.251527 3.5,0 0.9625,0.251528 0.175,0.457323 -1.75,0.457323 -1.925,0 -2.7125,-0.205795 -1.75,-0.457323 z M 20.151718,35.757463 c -0.0011,-9.35 0.149156,-13.309595 0.334013,-8.7991 0.184857,4.510495 0.185798,12.160495 0.0021,17 -0.183717,4.839505 -0.334964,1.1491 -0.336113,-8.2009 z m 16.979359,3 c 0.0017,-7.15 0.161031,-9.943785 0.353958,-6.208412 0.192928,3.735374 0.191497,9.585374 -0.0032,13 -0.194657,3.414627 -0.352507,0.358412 -0.350758,-6.791588 z m 27.827682,-0.25 0.216222,-12.75 0.31421,12.206805 0.31421,12.206804 7.219568,0.344499 7.219568,0.344498 -7.75,0.198697 -7.75,0.198697 0.216222,-12.75 z m 3.18569,5.507423 0.09809,-4.257423 4.75,-0.304791 c 2.6125,-0.167635 4.75,-0.705479 4.75,-1.195209 0,-0.48973 -2.1375,-1.027574 -4.75,-1.195209 l -4.75,-0.304791 -0.119233,-4 -0.119233,-4 0.426471,3.697546 c 0.418087,3.624857 0.518727,3.703493 5.119233,4 3.370254,0.217217 4.692762,0.725182 4.692762,1.802454 0,1.077384 -1.322807,1.585241 -4.69507,1.802548 -4.672626,0.301101 -4.696996,0.321453 -5.098088,4.257423 l -0.403018,3.954875 0.09809,-4.257423 z m 24.098088,1.242577 c -0.339919,-0.55 -0.141476,-1 0.440983,-1 0.582459,0 1.059017,0.45 1.059017,1 0,0.55 -0.198442,1 -0.440983,1 -0.242541,0 -0.719098,-0.45 -1.059017,-1 z m -35.627555,-15.75 c -1.243871,-1.586056 -1.208501,-1.621426 0.377555,-0.377555 1.665748,1.306369 2.195479,2.127555 1.372445,2.127555 -0.207656,0 -0.995156,-0.7875 -1.75,-1.75 z M 32.063331,8.5079969 c 15.301437,-0.1553313 40.051437,-0.1552069 55,2.764e-4 14.948569,0.1554833 2.429206,0.2825725 -27.820794,0.2824205 -30.25,-1.52e-4 -42.480643,-0.1273656 -27.179206,-0.2826969 z m 0,-4 c 15.301437,-0.1553313 40.051437,-0.1552069 55,2.764e-4 14.948569,0.1554833 2.429206,0.2825725 -27.820794,0.2824205 -30.25,-1.52e-4 -42.480643,-0.1273656 -27.179206,-0.2826969 z"
       style="fill:#eeeeee" />
    <path
       id="path3358"
       d="m -0.25746274,35.417978 0,-32.8394853 2.54705304,-1.160515 C 4.9941282,0.18570784 114.02287,-0.33966569 117.16075,0.86445154 c 1.39869,0.53672616 1.58179,4.47243186 1.58179,34.00000046 l 0,33.393011 -59.500003,0 -59.49999974,0 0,-32.839485 z m 114.00000274,3.839485 0,-25 -41.000003,0 -41,0 0,19.5 0,19.5 -3,0 -3,0 0,-19.5 0,-19.5 -10.5,0 -10.4999997,0 0,25 0,25 54.4999997,0 54.500003,0 0,-25 z m -48.000003,-1 0,-12 6.5,0 c 5.111111,0 6.5,0.320513 6.5,1.5 0,1.153489 -1.284485,1.5 -5.560365,1.5 l -5.560366,0 0.310366,3.75 c 0.307373,3.713849 0.356156,3.752938 5.060365,4.054791 2.6125,0.167635 4.75,0.705479 4.75,1.195209 0,0.48973 -2.1375,1.027574 -4.75,1.195209 l -4.75,0.304791 -0.307498,4.25 -0.307498,4.25 5.498481,0 c 3.024165,0 5.776596,0.45 6.116515,1 0.389728,0.630593 -1.989616,1 -6.440983,1 l -7.059017,0 0,-12 z m -9.842105,0 c 0,-1.375 0.226973,-1.9375 0.504386,-1.25 0.277412,0.6875 0.277412,1.8125 0,2.5 -0.277413,0.6875 -0.504386,0.125 -0.504386,-1.25 z m 57.842108,-31.5000003 0,-2.5 -54.500003,0 -54.4999997,0 0,2.5 0,2.5 54.4999997,0 54.500003,0 0,-2.5 z"
       style="fill:#d4d4d4" />
    <path
       id="path3356"
       d="m 14.183985,50.965476 c -0.27268,-0.710593 -0.358429,-8.248093 -0.190553,-16.75 l 0.305229,-15.458013 0.221938,16.180449 c 0.218145,15.903914 0.260392,16.187856 2.471938,16.613818 l 2.25,0.433369 -2.281385,0.136182 c -1.254761,0.0749 -2.504486,-0.445212 -2.777167,-1.155805 z"
       style="fill:#b3b3b3" />
    <path
       id="path3354"
       d="m 38.175436,49.943198 c -0.277382,-0.722846 -0.35883,-6.235346 -0.180996,-12.25 l 0.323334,-10.935735 0.212381,11.695209 0.212382,11.695209 4.75,0.374543 4.75,0.374543 -4.781385,0.180248 c -3.165179,0.11932 -4.951859,-0.264001 -5.285716,-1.134017 z m 54.379601,0.631151 c 0.721875,-0.288871 1.584375,-0.253344 1.916667,0.07895 0.332291,0.332292 -0.258334,0.568641 -1.3125,0.52522 -1.164943,-0.04798 -1.4019,-0.284941 -0.604167,-0.604167 z M 41.103033,39.257463 c 0,-5.225 0.168545,-7.3625 0.374543,-4.75 0.205999,2.6125 0.205999,6.8875 0,9.5 -0.205998,2.6125 -0.374543,0.475 -0.374543,-4.75 z m 12.511949,-7.75 c -1.243871,-1.586056 -1.208501,-1.621426 0.377555,-0.377555 1.665748,1.306369 2.195479,2.127555 1.372445,2.127555 -0.207656,0 -0.995156,-0.7875 -1.75,-1.75 z"
       style="fill:#9a9a9a" />
    <path
       id="path3352"
       d="m 19.147327,35.757463 c 0.0013,-8.8 0.15425,-12.266133 0.339965,-7.702518 0.185715,4.563614 0.18468,11.763614 -0.0023,16 -0.186982,4.236385 -0.338931,0.502518 -0.337665,-8.297482 z m 35.59521,12.122445 c 0,-0.207656 0.7875,-0.995156 1.75,-1.75 1.586056,-1.243871 1.621426,-1.208501 0.377555,0.377555 -1.306369,1.665748 -2.127555,2.195479 -2.127555,1.372445 z"
       style="fill:#8d8d8d" />
    <path
       id="path3350"
       d="m 43.504196,28.550202 c 1.243913,-0.239193 3.043913,-0.230112 4,0.02018 0.956088,0.250293 -0.06166,0.445997 -2.261659,0.434898 -2.2,-0.0111 -2.982253,-0.215885 -1.738341,-0.455078 z M 82.47587,27.133375 c 0.678334,-0.683418 1.485241,-0.990671 1.793128,-0.682784 0.307888,0.307887 -0.247112,0.867048 -1.233333,1.242579 -1.425198,0.542685 -1.540062,0.427821 -0.559795,-0.559795 z m 19,0 c 0.67834,-0.683418 1.48524,-0.990671 1.79313,-0.682784 0.30789,0.307887 -0.24711,0.867048 -1.23333,1.242579 -1.4252,0.542685 -1.54006,0.427821 -0.5598,-0.559795 z M 40.992537,26.541209 c 1.5125,-0.229125 3.9875,-0.229125 5.5,0 1.5125,0.229124 0.275,0.41659 -2.75,0.41659 -3.025,0 -4.2625,-0.187466 -2.75,-0.41659 z m -25.5,-6.946027 c 0.6875,-0.277412 1.8125,-0.277412 2.5,0 0.6875,0.277413 0.125,0.504386 -1.25,0.504386 -1.375,0 -1.9375,-0.226973 -1.25,-0.504386 z"
       style="fill:#7a7a7a" />
    <path
       id="path3348"
       d="m 14.742537,35.757463 c 0,-14.833333 0.08602,-15.5 2,-15.5 1.913978,0 2,0.666667 2,15.5 0,14.833333 -0.08602,15.5 -2,15.5 -1.913978,0 -2,-0.666667 -2,-15.5 z m 24,3 0,-11.5 6.984223,0 c 6.303822,0 7.302375,0.284268 10.25,2.917971 2.8594,2.554873 3.265777,3.53729 3.265777,7.895012 0,7.943659 -5.385712,12.187017 -15.467881,12.187017 l -5.032119,0 0,-11.5 z m 15.363636,6.863636 c 3.512155,-3.512154 3.678996,-10.039977 0.355363,-13.903931 -1.907066,-2.217095 -3.177561,-2.677058 -7.75,-2.805763 l -5.468999,-0.153942 -0.286212,9.75 -0.286212,9.75 5.399848,0 c 4.500986,0 5.8387,-0.438851 8.036212,-2.636364 z M 86.992537,39.480217 C 82.434499,27.93546 82.250189,27.257463 83.669851,27.257463 c 0.510023,0 2.361474,3.7125 4.114336,8.25 1.752862,4.5375 3.624059,9.375 4.158216,10.75 0.883618,2.274566 1.349039,1.55992 5.161393,-7.925243 2.304609,-5.733884 4.724314,-10.603281 5.377124,-10.820882 0.6528,-0.217602 -0.93378,4.804754 -3.525736,11.160792 -3.054446,7.490164 -5.24044,11.559282 -6.212647,11.564533 -0.979903,0.0053 -2.973607,-3.724302 -5.75,-10.756446 z"
       style="fill:#616161" />
  </g>
</svg>
